<svg id="visual" viewBox="0 0 960 440" width="960" height="440" xmlns="http://www.w3.org/2000/svg" xmlns:xlink="http://www.w3.org/1999/xlink" version="1.1"><rect x="0" y="0" width="960" height="440" fill="#ffffff"></rect><path d="M0 300L22.8 298.5C45.7 297 91.3 294 137 290.8C182.7 287.7 228.3 284.3 274 283.7C319.7 283 365.3 285 411.2 282.8C457 280.7 503 274.3 548.8 277.2C594.7 280 640.3 292 686 294.2C731.7 296.3 777.3 288.7 823 287.3C868.7 286 914.3 291 937.2 293.5L960 296L960 441L937.2 441C914.3 441 868.7 441 823 441C777.3 441 731.7 441 686 441C640.3 441 594.7 441 548.8 441C503 441 457 441 411.2 441C365.3 441 319.7 441 274 441C228.3 441 182.7 441 137 441C91.3 441 45.7 441 22.8 441L0 441Z" fill="#b85887"></path><path d="M0 332L22.8 329.5C45.7 327 91.3 322 137 325C182.7 328 228.3 339 274 343C319.7 347 365.3 344 411.2 341.2C457 338.3 503 335.7 548.8 332C594.7 328.3 640.3 323.7 686 322.3C731.7 321 777.3 323 823 318.7C868.7 314.3 914.3 303.7 937.2 298.3L960 293L960 441L937.2 441C914.3 441 868.7 441 823 441C777.3 441 731.7 441 686 441C640.3 441 594.7 441 548.8 441C503 441 457 441 411.2 441C365.3 441 319.7 441 274 441C228.3 441 182.7 441 137 441C91.3 441 45.7 441 22.8 441L0 441Z" fill="#c46c97"></path><path d="M0 349L22.8 351.3C45.7 353.7 91.3 358.3 137 360.2C182.7 362 228.3 361 274 354.8C319.7 348.7 365.3 337.3 411.2 333C457 328.7 503 331.3 548.8 335.7C594.7 340 640.3 346 686 345.8C731.7 345.7 777.3 339.3 823 336.5C868.7 333.7 914.3 334.3 937.2 334.7L960 335L960 441L937.2 441C914.3 441 868.7 441 823 441C777.3 441 731.7 441 686 441C640.3 441 594.7 441 548.8 441C503 441 457 441 411.2 441C365.3 441 319.7 441 274 441C228.3 441 182.7 441 137 441C91.3 441 45.7 441 22.8 441L0 441Z" fill="#cf7fa7"></path><path d="M0 393L22.8 387.8C45.7 382.7 91.3 372.3 137 370.2C182.7 368 228.3 374 274 373.7C319.7 373.3 365.3 366.7 411.2 365.7C457 364.7 503 369.3 548.8 372.5C594.7 375.7 640.3 377.3 686 375.3C731.7 373.3 777.3 367.7 823 365.3C868.7 363 914.3 364 937.2 364.5L960 365L960 441L937.2 441C914.3 441 868.7 441 823 441C777.3 441 731.7 441 686 441C640.3 441 594.7 441 548.8 441C503 441 457 441 411.2 441C365.3 441 319.7 441 274 441C228.3 441 182.7 441 137 441C91.3 441 45.7 441 22.8 441L0 441Z" fill="#db92b7"></path><path d="M0 408L22.8 408.5C45.7 409 91.3 410 137 410.5C182.7 411 228.3 411 274 410C319.7 409 365.3 407 411.2 404.3C457 401.7 503 398.3 548.8 397.3C594.7 396.3 640.3 397.7 686 399.5C731.7 401.3 777.3 403.7 823 407C868.7 410.3 914.3 414.7 937.2 416.8L960 419L960 441L937.2 441C914.3 441 868.7 441 823 441C777.3 441 731.7 441 686 441C640.3 441 594.7 441 548.8 441C503 441 457 441 411.2 441C365.3 441 319.7 441 274 441C228.3 441 182.7 441 137 441C91.3 441 45.7 441 22.8 441L0 441Z" fill="#e6a6c7"></path></svg>