<svg id="visual" viewBox="0 0 960 540" width="960" height="540" xmlns="http://www.w3.org/2000/svg" xmlns:xlink="http://www.w3.org/1999/xlink" version="1.1"><rect width="960" height="540" fill="#ffffff"></rect><g><g transform="translate(636 237)"><path d="M90.5 -30.4C102.7 8 87.8 54.2 55.3 78.4C22.7 102.6 -27.5 104.8 -60.1 81.4C-92.7 58 -107.7 9.1 -94.8 -30.4C-81.8 -69.9 -40.9 -100 -0.9 -99.7C39.2 -99.4 78.4 -68.8 90.5 -30.4Z" stroke="#347DC1" fill="none" stroke-width="20"></path></g><g transform="translate(128 424)"><path d="M96.7 -33.7C108.8 5.6 90.5 52.5 57.8 75.2C25.2 97.8 -21.8 96.3 -53.8 73.3C-85.8 50.2 -102.7 5.7 -91.3 -32.9C-79.8 -71.5 -39.9 -104.1 1.2 -104.5C42.4 -104.9 84.7 -73.1 96.7 -33.7Z" stroke="#347DC1" fill="none" stroke-width="20"></path></g><g transform="translate(843 9)"><path d="M52.5 -20.2C59.8 5.5 51.9 33 33 47C14.1 61.1 -15.6 61.8 -36 47.5C-56.4 33.2 -67.4 3.8 -59.9 -22.2C-52.3 -48.2 -26.2 -70.9 -1.8 -70.3C22.6 -69.7 45.2 -45.9 52.5 -20.2Z" stroke="#347DC1" fill="none" stroke-width="20"></path></g><g transform="translate(345 90)"><path d="M55.9 -16C64.1 7 56.6 37.2 37.4 51.1C18.2 65 -12.7 62.5 -33.7 47C-54.7 31.6 -65.8 3.3 -58.5 -18.4C-51.3 -40.2 -25.6 -55.3 -0.9 -55C23.9 -54.8 47.7 -39 55.9 -16Z" stroke="#347DC1" fill="none" stroke-width="20"></path></g><g transform="translate(873 523)"><path d="M44.5 -13.5C51.7 7.5 47.2 33.2 32 44.4C16.7 55.6 -9.4 52.2 -28 38.6C-46.7 25.1 -57.9 1.3 -52 -18C-46.1 -37.4 -23 -52.2 -2.2 -51.5C18.7 -50.8 37.4 -34.5 44.5 -13.5Z" stroke="#347DC1" fill="none" stroke-width="20"></path></g></g></svg>