<svg id="visual" viewBox="0 0 960 540" width="960" height="540" xmlns="http://www.w3.org/2000/svg" xmlns:xlink="http://www.w3.org/1999/xlink" version="1.1"><rect x="0" y="0" width="960" height="540" fill="#ffffff"></rect><defs><linearGradient id="grad1_0" x1="43.8%" y1="0%" x2="100%" y2="100%"><stop offset="14.444444444444446%" stop-color="#ffffff" stop-opacity="1"></stop><stop offset="85.55555555555554%" stop-color="#ffffff" stop-opacity="1"></stop></linearGradient></defs><defs><linearGradient id="grad2_0" x1="0%" y1="0%" x2="56.3%" y2="100%"><stop offset="14.444444444444446%" stop-color="#ffffff" stop-opacity="1"></stop><stop offset="85.55555555555554%" stop-color="#ffffff" stop-opacity="1"></stop></linearGradient></defs><g transform="translate(960, 0)"><path d="M0 324C-38.3 308.1 -76.7 292.1 -114.8 277.2C-152.9 262.2 -190.8 248.2 -223.4 223.4C-256.1 198.7 -283.5 163 -299.3 124C-315.2 84.9 -319.6 42.5 -324 0L0 0Z" fill="#B85887"></path></g><g transform="translate(0, 540)"><path d="M0 -324C43.6 -320.5 87.3 -317 124 -299.3C160.7 -281.7 190.5 -249.8 218.5 -218.5C246.5 -187.2 272.8 -156.5 290.1 -120.2C307.4 -83.8 315.7 -41.9 324 0L0 0Z" fill="#B85887"></path></g></svg>